# xmcd
#
# Track frame offsets: 
#        212
#        18742
#        43830
#        54430
#        83512
#        106637
#        116147
#        132650
#        147837
#        158087
#        175947
#        186137
#
# Disc length: 2783 seconds
#
# Revision: 0
# Processed by: cddbd v1.5PL3 Copyright (c) Steve Scherf et al.
# Submitted via: ExactAudioCopy v0.95a4
#
DISCID=9f0add0c
DTITLE=Sweet Honey in The Rock - Good News
DYEAR=1900
DGENRE=A Cappella
TTITLE0=Breaths
TTITLE1=Echo
TTITLE2=Chile Your Waters Run Red Through Soweto
TTITLE3=Oh Death
TTITLE4=Good News
TTITLE5=Biko
TTITLE6=If You Had Lived
TTITLE7=Oughta Be A Woman
TTITLE8=On Children
TTITLE9=Time On My Hands
TTITLE10=Alla That's All Right, But
TTITLE11=Sometime
EXTD=
EXTT0=
EXTT1=
EXTT2=
EXTT3=
EXTT4=
EXTT5=
EXTT6=
EXTT7=
EXTT8=
EXTT9=
EXTT10=
EXTT11=
PLAYORDER=
